<?xml version="1.0" encoding="UTF-8" standalone="no"?>
<!-- Created with Inkscape (http://www.inkscape.org/) -->

<svg
   xmlns:dc="http://purl.org/dc/elements/1.1/"
   xmlns:cc="http://creativecommons.org/ns#"
   xmlns:rdf="http://www.w3.org/1999/02/22-rdf-syntax-ns#"
   xmlns:svg="http://www.w3.org/2000/svg"
   xmlns="http://www.w3.org/2000/svg"
   xmlns:xlink="http://www.w3.org/1999/xlink"
   xmlns:sodipodi="http://sodipodi.sourceforge.net/DTD/sodipodi-0.dtd"
   xmlns:inkscape="http://www.inkscape.org/namespaces/inkscape"
   width="1139.9717"
   height="523.88385"
   id="svg2"
   version="1.1"
   inkscape:version="0.48.4 r9939"
   sodipodi:docname="cinpla-logo-brain-export.svg"
   inkscape:export-filename="/home/svenni/studies/cinpla/logo/cinpla-logo-brain-nmbu.png"
   inkscape:export-xdpi="68.57"
   inkscape:export-ydpi="68.57">
  <defs
     id="defs4">
    <linearGradient
       id="linearGradient3890">
      <stop
         style="stop-color:#ffffff;stop-opacity:0.77777778"
         offset="0"
         id="stop3892" />
      <stop
         style="stop-color:#ffffff;stop-opacity:0;"
         offset="1"
         id="stop3894" />
    </linearGradient>
    <linearGradient
       id="linearGradient4637">
      <stop
         id="stop4639"
         offset="0"
         style="stop-color:#ffffff;stop-opacity:0.47031963" />
      <stop
         id="stop4641"
         offset="1"
         style="stop-color:#ffffff;stop-opacity:0;" />
    </linearGradient>
    <linearGradient
       inkscape:collect="always"
       id="linearGradient4625">
      <stop
         style="stop-color:#ffffff;stop-opacity:0.76131687"
         offset="0"
         id="stop4627" />
      <stop
         style="stop-color:#ffffff;stop-opacity:0;"
         offset="1"
         id="stop4629" />
    </linearGradient>
    <inkscape:path-effect
       is_visible="true"
       id="path-effect4379"
       effect="spiro" />
    <linearGradient
       inkscape:collect="always"
       id="linearGradient4365">
      <stop
         style="stop-color:#ea6557;stop-opacity:1"
         offset="0"
         id="stop4367" />
      <stop
         style="stop-color:#ee7e73;stop-opacity:1"
         offset="1"
         id="stop4369" />
    </linearGradient>
    <inkscape:path-effect
       effect="spiro"
       id="path-effect4254"
       is_visible="true" />
    <inkscape:path-effect
       effect="spiro"
       id="path-effect4250"
       is_visible="true" />
    <inkscape:path-effect
       effect="spiro"
       id="path-effect4246"
       is_visible="true" />
    <inkscape:path-effect
       effect="spiro"
       id="path-effect4242"
       is_visible="true" />
    <inkscape:path-effect
       effect="spiro"
       id="path-effect4238"
       is_visible="true" />
    <inkscape:path-effect
       effect="spiro"
       id="path-effect4234"
       is_visible="true" />
    <inkscape:path-effect
       effect="spiro"
       id="path-effect4230"
       is_visible="true" />
    <inkscape:path-effect
       effect="spiro"
       id="path-effect4226"
       is_visible="true" />
    <inkscape:path-effect
       effect="spiro"
       id="path-effect4222"
       is_visible="true" />
    <inkscape:path-effect
       effect="spiro"
       id="path-effect4218"
       is_visible="true" />
    <inkscape:path-effect
       effect="spiro"
       id="path-effect4214"
       is_visible="true" />
    <inkscape:path-effect
       effect="spiro"
       id="path-effect4210"
       is_visible="true" />
    <inkscape:path-effect
       effect="spiro"
       id="path-effect4206"
       is_visible="true" />
    <inkscape:path-effect
       effect="spiro"
       id="path-effect4202"
       is_visible="true" />
    <inkscape:path-effect
       effect="spiro"
       id="path-effect4198"
       is_visible="true" />
    <inkscape:path-effect
       effect="spiro"
       id="path-effect4194"
       is_visible="true" />
    <inkscape:path-effect
       effect="spiro"
       id="path-effect4126"
       is_visible="true" />
    <inkscape:path-effect
       effect="spiro"
       id="path-effect4118"
       is_visible="true" />
    <inkscape:path-effect
       effect="spiro"
       id="path-effect4114"
       is_visible="true" />
    <inkscape:path-effect
       effect="spiro"
       id="path-effect4106"
       is_visible="true" />
    <inkscape:path-effect
       effect="spiro"
       id="path-effect4102"
       is_visible="true" />
    <inkscape:path-effect
       effect="spiro"
       id="path-effect4098"
       is_visible="true" />
    <inkscape:path-effect
       effect="spiro"
       id="path-effect4090"
       is_visible="true" />
    <inkscape:path-effect
       effect="spiro"
       id="path-effect4086"
       is_visible="true" />
    <inkscape:path-effect
       effect="spiro"
       id="path-effect4082"
       is_visible="true" />
    <inkscape:path-effect
       effect="spiro"
       id="path-effect4078"
       is_visible="true" />
    <inkscape:path-effect
       effect="spiro"
       id="path-effect4074"
       is_visible="true" />
    <inkscape:path-effect
       effect="spiro"
       id="path-effect4070"
       is_visible="true" />
    <inkscape:path-effect
       effect="spiro"
       id="path-effect4060"
       is_visible="true" />
    <inkscape:path-effect
       effect="spiro"
       id="path-effect3853"
       is_visible="true" />
    <inkscape:path-effect
       effect="spiro"
       id="path-effect3849"
       is_visible="true" />
    <inkscape:path-effect
       effect="spiro"
       id="path-effect3845"
       is_visible="true" />
    <inkscape:path-effect
       effect="spiro"
       id="path-effect3841"
       is_visible="true" />
    <inkscape:path-effect
       effect="spiro"
       id="path-effect3837"
       is_visible="true" />
    <inkscape:path-effect
       effect="spiro"
       id="path-effect3833"
       is_visible="true" />
    <inkscape:path-effect
       effect="spiro"
       id="path-effect3829"
       is_visible="true" />
    <inkscape:path-effect
       effect="spiro"
       id="path-effect3825"
       is_visible="true" />
    <inkscape:path-effect
       effect="spiro"
       id="path-effect3821"
       is_visible="true" />
    <inkscape:path-effect
       effect="spiro"
       id="path-effect3817"
       is_visible="true" />
    <inkscape:path-effect
       effect="spiro"
       id="path-effect3813"
       is_visible="true" />
    <inkscape:path-effect
       effect="spiro"
       id="path-effect3809"
       is_visible="true" />
    <inkscape:path-effect
       effect="spiro"
       id="path-effect3805"
       is_visible="true" />
    <inkscape:path-effect
       effect="spiro"
       id="path-effect3801"
       is_visible="true" />
    <inkscape:path-effect
       effect="spiro"
       id="path-effect3797"
       is_visible="true" />
    <inkscape:path-effect
       effect="spiro"
       id="path-effect3789"
       is_visible="true" />
    <inkscape:path-effect
       effect="spiro"
       id="path-effect2998"
       is_visible="true" />
    <inkscape:path-effect
       effect="spiro"
       id="path-effect3789-7"
       is_visible="true" />
    <radialGradient
       inkscape:collect="always"
       xlink:href="#linearGradient4365"
       id="radialGradient4377"
       gradientUnits="userSpaceOnUse"
       gradientTransform="matrix(-1.7634731,0,0,2.1419589,731.20245,-293.82726)"
       cx="294.18192"
       cy="258.63495"
       fx="294.18192"
       fy="258.63495"
       r="71.103637" />
    <inkscape:path-effect
       effect="spiro"
       id="path-effect3789-2"
       is_visible="true" />
    <inkscape:path-effect
       effect="spiro"
       id="path-effect4060-7"
       is_visible="true" />
    <radialGradient
       inkscape:collect="always"
       xlink:href="#linearGradient4365-9"
       id="radialGradient4377-0"
       gradientUnits="userSpaceOnUse"
       gradientTransform="matrix(-1.7634731,0,0,2.1419589,731.20245,-293.82726)"
       cx="294.18192"
       cy="258.63495"
       fx="294.18192"
       fy="258.63495"
       r="71.103638" />
    <linearGradient
       id="linearGradient4365-9">
      <stop
         style="stop-color:#ea6557;stop-opacity:1"
         offset="0"
         id="stop4367-8" />
      <stop
         style="stop-color:#ee7e73;stop-opacity:1"
         offset="1"
         id="stop4369-0" />
    </linearGradient>
    <inkscape:path-effect
       is_visible="true"
       id="path-effect4379-1"
       effect="spiro" />
    <radialGradient
       r="71.103638"
       fy="258.63495"
       fx="294.18192"
       cy="258.63495"
       cx="294.18192"
       gradientTransform="matrix(-1.7634731,0,0,2.1419589,732.80245,-293.82726)"
       gradientUnits="userSpaceOnUse"
       id="radialGradient4565"
       xlink:href="#linearGradient4365-9"
       inkscape:collect="always" />
    <radialGradient
       inkscape:collect="always"
       xlink:href="#linearGradient4625"
       id="radialGradient4631"
       cx="218.26088"
       cy="243.25099"
       fx="218.26088"
       fy="243.25099"
       r="92.049696"
       gradientTransform="matrix(1.1146044,-0.16052813,0.2222167,1.5429301,-96.243239,-119.96983)"
       gradientUnits="userSpaceOnUse" />
    <radialGradient
       inkscape:collect="always"
       xlink:href="#linearGradient4637"
       id="radialGradient4635"
       gradientUnits="userSpaceOnUse"
       gradientTransform="matrix(-1.113158,-0.17026879,-0.35021987,2.2896153,641.00731,-299.47573)"
       cx="218.26088"
       cy="243.25099"
       fx="218.26088"
       fy="243.25099"
       r="92.049696" />
    <radialGradient
       inkscape:collect="always"
       xlink:href="#linearGradient4365-9"
       id="radialGradient4818"
       gradientUnits="userSpaceOnUse"
       gradientTransform="matrix(-1.7634731,0,0,2.1419589,732.80245,-293.82726)"
       cx="294.18192"
       cy="258.63495"
       fx="294.18192"
       fy="258.63495"
       r="71.103638" />
    <radialGradient
       inkscape:collect="always"
       xlink:href="#linearGradient4365-9"
       id="radialGradient4821"
       gradientUnits="userSpaceOnUse"
       gradientTransform="matrix(-1.7634731,0,0,2.1419589,732.80245,-293.82726)"
       cx="294.18192"
       cy="258.63495"
       fx="294.18192"
       fy="258.63495"
       r="71.103638" />
    <radialGradient
       inkscape:collect="always"
       xlink:href="#linearGradient4365-9"
       id="radialGradient4824"
       gradientUnits="userSpaceOnUse"
       gradientTransform="matrix(-1.7634731,0,0,2.1419589,732.80245,-293.82726)"
       cx="294.18192"
       cy="258.63495"
       fx="294.18192"
       fy="258.63495"
       r="71.103638" />
    <radialGradient
       inkscape:collect="always"
       xlink:href="#linearGradient4365-9"
       id="radialGradient4827"
       gradientUnits="userSpaceOnUse"
       gradientTransform="matrix(-1.7634731,0,0,2.1419589,732.80245,-293.82726)"
       cx="294.18192"
       cy="258.63495"
       fx="294.18192"
       fy="258.63495"
       r="71.103638" />
    <radialGradient
       inkscape:collect="always"
       xlink:href="#linearGradient4365-9"
       id="radialGradient4830"
       gradientUnits="userSpaceOnUse"
       gradientTransform="matrix(-1.7634731,0,0,2.1419589,732.80245,-293.82726)"
       cx="294.18192"
       cy="258.63495"
       fx="294.18192"
       fy="258.63495"
       r="71.103638" />
    <radialGradient
       inkscape:collect="always"
       xlink:href="#linearGradient4365-9"
       id="radialGradient4833"
       gradientUnits="userSpaceOnUse"
       gradientTransform="matrix(-1.7634731,0,0,2.1419589,732.80245,-293.82726)"
       cx="294.18192"
       cy="258.63495"
       fx="294.18192"
       fy="258.63495"
       r="71.103638" />
    <radialGradient
       inkscape:collect="always"
       xlink:href="#linearGradient4365-9"
       id="radialGradient4836"
       gradientUnits="userSpaceOnUse"
       gradientTransform="matrix(-1.7634731,0,0,2.1419589,732.80245,-293.82726)"
       cx="294.18192"
       cy="258.63495"
       fx="294.18192"
       fy="258.63495"
       r="71.103638" />
    <radialGradient
       inkscape:collect="always"
       xlink:href="#linearGradient4365-9"
       id="radialGradient4839"
       gradientUnits="userSpaceOnUse"
       gradientTransform="matrix(-1.7634731,0,0,2.1419589,732.80245,-293.82726)"
       cx="294.18192"
       cy="258.63495"
       fx="294.18192"
       fy="258.63495"
       r="71.103638" />
    <radialGradient
       inkscape:collect="always"
       xlink:href="#linearGradient4365-9"
       id="radialGradient4842"
       gradientUnits="userSpaceOnUse"
       gradientTransform="matrix(-1.7634731,0,0,2.1419589,732.80245,-293.82726)"
       cx="294.18192"
       cy="258.63495"
       fx="294.18192"
       fy="258.63495"
       r="71.103638" />
    <radialGradient
       inkscape:collect="always"
       xlink:href="#linearGradient4365-9"
       id="radialGradient4845"
       gradientUnits="userSpaceOnUse"
       gradientTransform="matrix(-1.7634731,0,0,2.1419589,732.80245,-293.82726)"
       cx="294.18192"
       cy="258.63495"
       fx="294.18192"
       fy="258.63495"
       r="71.103638" />
    <radialGradient
       inkscape:collect="always"
       xlink:href="#linearGradient4365-9"
       id="radialGradient4848"
       gradientUnits="userSpaceOnUse"
       gradientTransform="matrix(-1.7634731,0,0,2.1419589,732.80245,-293.82726)"
       cx="294.18192"
       cy="258.63495"
       fx="294.18192"
       fy="258.63495"
       r="71.103638" />
    <radialGradient
       inkscape:collect="always"
       xlink:href="#linearGradient4365-9"
       id="radialGradient4851"
       gradientUnits="userSpaceOnUse"
       gradientTransform="matrix(-1.7634731,0,0,2.1419589,732.80245,-293.82726)"
       cx="294.18192"
       cy="258.63495"
       fx="294.18192"
       fy="258.63495"
       r="71.103638" />
    <radialGradient
       inkscape:collect="always"
       xlink:href="#linearGradient4365-9"
       id="radialGradient4854"
       gradientUnits="userSpaceOnUse"
       gradientTransform="matrix(-1.7634731,0,0,2.1419589,732.80245,-293.82726)"
       cx="294.18192"
       cy="258.63495"
       fx="294.18192"
       fy="258.63495"
       r="71.103638" />
    <radialGradient
       inkscape:collect="always"
       xlink:href="#linearGradient4365-9"
       id="radialGradient4857"
       gradientUnits="userSpaceOnUse"
       gradientTransform="matrix(-1.7634731,0,0,2.1419589,732.80245,-293.82726)"
       cx="294.18192"
       cy="258.63495"
       fx="294.18192"
       fy="258.63495"
       r="71.103638" />
    <radialGradient
       inkscape:collect="always"
       xlink:href="#linearGradient4365-9"
       id="radialGradient4860"
       gradientUnits="userSpaceOnUse"
       gradientTransform="matrix(-1.7634731,0,0,2.1419589,732.80245,-293.82726)"
       cx="294.18192"
       cy="258.63495"
       fx="294.18192"
       fy="258.63495"
       r="71.103638" />
    <radialGradient
       inkscape:collect="always"
       xlink:href="#linearGradient4365-9"
       id="radialGradient4863"
       gradientUnits="userSpaceOnUse"
       gradientTransform="matrix(-1.7634731,0,0,2.1419589,732.80245,-293.82726)"
       cx="294.18192"
       cy="258.63495"
       fx="294.18192"
       fy="258.63495"
       r="71.103638" />
    <radialGradient
       inkscape:collect="always"
       xlink:href="#linearGradient4365-9"
       id="radialGradient4866"
       gradientUnits="userSpaceOnUse"
       gradientTransform="matrix(-1.7634731,0,0,2.1419589,732.80245,-293.82726)"
       cx="294.18192"
       cy="258.63495"
       fx="294.18192"
       fy="258.63495"
       r="71.103638" />
    <radialGradient
       inkscape:collect="always"
       xlink:href="#linearGradient4365-9"
       id="radialGradient4869"
       gradientUnits="userSpaceOnUse"
       gradientTransform="matrix(-1.7634731,0,0,2.1419589,732.80245,-293.82726)"
       cx="294.18192"
       cy="258.63495"
       fx="294.18192"
       fy="258.63495"
       r="71.103638" />
    <radialGradient
       inkscape:collect="always"
       xlink:href="#linearGradient4365-9"
       id="radialGradient4968"
       gradientUnits="userSpaceOnUse"
       gradientTransform="matrix(-1.7634731,0,0,2.1419589,729.60245,-293.82726)"
       cx="294.18192"
       cy="258.63495"
       fx="294.18192"
       fy="258.63495"
       r="71.103638" />
    <radialGradient
       inkscape:collect="always"
       xlink:href="#linearGradient3890"
       id="radialGradient3888"
       gradientUnits="userSpaceOnUse"
       gradientTransform="matrix(-1.1167321,-0.14498823,-0.1795489,1.3829261,600.27152,-84.440451)"
       cx="218.26088"
       cy="243.25099"
       fx="218.26088"
       fy="243.25099"
       r="92.049696" />
  </defs>
  <sodipodi:namedview
     id="base"
     pagecolor="#ffffff"
     bordercolor="#666666"
     borderopacity="1.0"
     inkscape:pageopacity="0"
     inkscape:pageshadow="2"
     inkscape:zoom="0.72015032"
     inkscape:cx="460.75294"
     inkscape:cy="322.27826"
     inkscape:document-units="px"
     inkscape:current-layer="layer7"
     showgrid="false"
     inkscape:snap-global="false"
     inkscape:object-paths="true"
     inkscape:object-nodes="true"
     inkscape:snap-intersection-paths="true"
     inkscape:snap-smooth-nodes="true"
     inkscape:snap-midpoints="true"
     inkscape:snap-object-midpoints="true"
     inkscape:snap-center="true"
     inkscape:snap-page="true"
     inkscape:window-width="1680"
     inkscape:window-height="1026"
     inkscape:window-x="2560"
     inkscape:window-y="24"
     inkscape:window-maximized="1"
     fit-margin-top="100"
     fit-margin-right="100"
     fit-margin-bottom="100"
     fit-margin-left="100">
    <inkscape:grid
       type="xygrid"
       id="grid3793"
       empspacing="4"
       visible="true"
       enabled="true"
       snapvisiblegridlinesonly="true"
       originx="-147.1422px"
       originy="-266.00206px" />
  </sodipodi:namedview>
  <metadata
     id="metadata7">
    <rdf:RDF>
      <cc:Work
         rdf:about="">
        <dc:format>image/svg+xml</dc:format>
        <dc:type
           rdf:resource="http://purl.org/dc/dcmitype/StillImage" />
        <dc:title></dc:title>
      </cc:Work>
    </rdf:RDF>
  </metadata>
  <g
     inkscape:groupmode="layer"
     id="layer9"
     inkscape:label="background"
     style="display:inline" />
  <g
     inkscape:groupmode="layer"
     id="layer10"
     inkscape:label="background-uio"
     style="display:inline" />
  <g
     inkscape:label="background-nmbu"
     id="g4153"
     inkscape:groupmode="layer"
     style="display:inline" />
  <g
     inkscape:groupmode="layer"
     id="layer3"
     inkscape:label="connectionsback"
     style="display:inline">
    <path
       style="fill:#3498db;fill-opacity:0.94117647;stroke:none"
       d="m 295.8125,105 c -14.64539,0.12976 -29.18782,5.63266 -40.28125,15.1875 0.61191,2.05968 0.87866,4.24066 0.96875,6.375 0.003,2.53201 0.0575,5.06366 0.15625,7.59375 l 29.96875,29.96875 0.71875,0.71875 0,1.0625 0,23.40625 c 3.71359,1.08166 6.4375,4.49972 6.4375,8.5625 0,4.93111 -4.00639,8.9375 -8.9375,8.9375 -4.93111,0 -8.90625,-4.00639 -8.90625,-8.9375 0,-4.06092 2.69528,-7.47918 6.40625,-8.5625 l 0,-22.375 -25.21875,-25.21875 c 0.0142,0.15553 0.0165,0.31326 0.0312,0.46875 0.27644,3.53885 0.8615,7.02097 1.09375,10.5625 0.61135,7.54028 0.19637,15.11365 -0.125,22.65625 -0.52246,9.66559 0.56472,19.29676 1.0625,28.9375 -0.0677,4.10597 0.17053,8.24087 0.71875,12.3125 0.42429,3.60887 1.11758,7.16279 1.6875,10.75 l 54.1875,0 31.28125,-31.28125 0.75,-0.71875 1.03125,0 42.3125,0 c -0.98371,-3.70807 -2.10724,-7.38184 -3.375,-11 l -38.375,0 -23.78125,11.875 c 0.0928,0.51522 0.15625,1.05138 0.15625,1.59375 0,4.93111 -4.00639,8.9375 -8.9375,8.9375 -4.93111,0 -8.90625,-4.00639 -8.90625,-8.9375 0,-4.93111 3.97514,-8.90625 8.90625,-8.90625 2.58122,0 4.89879,1.09836 6.53125,2.84375 l 24.34375,-12.15625 0.53125,-0.25 0.59375,0 37.09375,0 c -1.53213,-3.90608 -3.22704,-7.74961 -5.09375,-11.5 l 0,0.5 -64,0 -1.03125,0 -0.75,-0.75 L 289.0312,141.625 c -1.02653,0.41161 -2.13998,0.625 -3.3125,0.625 -4.93111,0 -8.9375,-4.00639 -8.9375,-8.9375 0,-4.93111 4.00639,-8.9375 8.9375,-8.9375 4.93111,0 8.9375,4.00639 8.9375,8.9375 0,1.9308 -0.61277,3.72525 -1.65625,5.1875 l 24.90625,24.90625 60.59375,0 C 371.44955,150.44224 362.35847,138.63569 351.375,128.75 336.05481,114.96104 316.42343,104.81739 295.8125,105 z m 54.0625,95.40625 -31.25,31.25 -0.75,0.75 -1.03125,0 -54.5625,0 c 0.85507,7.80804 -0.6825,15.60799 -2.125,23.25 -0.25444,1.24527 -0.47634,2.49687 -0.6875,3.75 l 41.375,0 48,0 1.03125,0 0.75,0.71875 9.9375,9.9375 c 1.27075,-0.69673 2.72527,-1.09375 4.28125,-1.09375 4.93111,0 8.9375,3.97514 8.9375,8.90625 0,4.93111 -4.00639,8.9375 -8.9375,8.9375 -4.93111,0 -8.90625,-4.00639 -8.90625,-8.9375 0,-1.54097 0.37824,-2.98788 1.0625,-4.25 0.004,-0.008 -0.004,-0.0237 0,-0.0312 l -9.1875,-9.1875 -46.96875,0 -42.125,0 c -0.42038,3.49073 -0.65895,6.98265 -0.71875,10.5 -0.007,0.16629 -0.0248,0.33371 -0.0312,0.5 l 58.875,0 16,0 1.03125,0 0.75,0.71875 9.9375,9.9375 c 1.27075,-0.69673 2.72527,-1.09375 4.28125,-1.09375 4.93111,0 8.9375,3.97514 8.9375,8.90625 0,4.93111 -4.00639,8.9375 -8.9375,8.9375 -4.93111,0 -8.90625,-4.00639 -8.90625,-8.9375 0,-1.54097 0.37824,-2.98788 1.0625,-4.25 0.004,-0.008 -0.004,-0.0237 0,-0.0312 l -9.1875,-9.1875 -14.96875,0 -59.03125,0 c -0.0932,3.6655 -0.11375,7.3335 -0.125,11 l 34.625,0 c 1.07408,-3.72554 4.45997,-6.4375 8.53125,-6.4375 4.93111,0 8.9375,3.97514 8.9375,8.90625 0,4.93111 -4.00639,8.9375 -8.9375,8.9375 -4.05209,0 -7.44012,-2.7077 -8.53125,-6.40625 l -34.65625,0 c 0.0279,6.80402 0.1535,13.60375 0.25,20.40625 0.16574,4.43027 0.0161,8.85208 0.21875,13.28125 0.17853,6.18087 1.67356,12.23453 1.9375,18.40625 0.0845,5.75101 -0.46146,11.47912 -0.75,17.21875 -0.22829,5.71662 -2.56017,11.10241 -2.9375,16.8125 -0.242,2.8195 0.34375,5.78759 1.25,8.65625 4.36655,5.5769 9.97534,10.17518 16.3125,13.34375 2.69263,1.34632 5.50876,2.43186 8.40625,3.25 l 0,-64.84375 -9.1875,-9.1875 -0.0312,0 c -1.26512,0.68725 -2.74028,1.0625 -4.28125,1.0625 -4.93111,0 -8.90625,-4.00639 -8.90625,-8.9375 0,-4.93111 3.97514,-8.90625 8.90625,-8.90625 4.93111,0 8.9375,3.97514 8.9375,8.90625 0,1.55651 -0.39353,3.0384 -1.09375,4.3125 l 9.9375,9.9375 0.71875,0.71875 0,1.0625 0,67 c 3.29003,0.56303 6.63383,0.79157 9.96875,0.65625 0.34516,-0.014 0.68667,-0.041 1.03125,-0.0625 l 0,-67.59375 0,-1.0625 L 299.0625,340.125 325,314.1875 c -0.004,-0.008 0.004,-0.0235 0,-0.0312 -0.68725,-1.26512 -1.0625,-2.74028 -1.0625,-4.28125 0,-4.93111 3.97514,-8.90625 8.90625,-8.90625 4.93111,0 8.9375,3.97514 8.9375,8.90625 0,4.93111 -4.00639,8.9375 -8.9375,8.9375 -1.55651,0 -3.00715,-0.39353 -4.28125,-1.09375 l -25.21875,25.21875 0,66 c 3.76073,-0.62577 7.4484,-1.67872 11,-3.09375 l 0,-47.9375 0,-1.0625 0.71875,-0.71875 9.96875,-9.96875 c -0.69673,-1.27501 -1.09375,-2.72527 -1.09375,-4.28125 0,-4.93111 3.97514,-8.90625 8.90625,-8.90625 4.93111,0 8.9375,3.97514 8.9375,8.90625 0,4.93111 -4.00639,8.9375 -8.9375,8.9375 -1.54097,0 -2.98788,-0.4053 -4.25,-1.09375 -0.008,-0.004 -0.0234,0.004 -0.0312,0 l -9.21875,9.21875 0,44.625 c 1.21942,-0.62656 2.42252,-1.29128 3.59375,-2 7.73579,-4.681 14.38753,-11.04002 19.84375,-18.25 11.44146,-15.11905 17.51606,-33.50519 24.75,-51.03125 8.0228,-19.43727 17.69051,-38.30555 23.21875,-58.59375 3.65979,-13.43116 5.45141,-27.35917 5.34375,-41.28125 l -22.6875,0 c -1.09113,3.69855 -4.51041,6.40625 -8.5625,6.40625 -4.93111,0 -8.90625,-4.00639 -8.90625,-8.9375 0,-4.93111 3.97514,-8.90625 8.90625,-8.90625 4.07387,0 7.522,2.70832 8.59375,6.4375 l 22.53125,0 c -0.12515,-3.09486 -0.34281,-6.20001 -0.65625,-9.28125 -0.60591,-5.95637 -1.6018,-11.87064 -2.9375,-17.71875 l -42.5,0 z"
       id="path3787-4"
       inkscape:connector-curvature="0" />
  </g>
  <g
     style="display:inline"
     inkscape:label="connectionsback-uio"
     id="g3921"
     inkscape:groupmode="layer" />
  <g
     inkscape:groupmode="layer"
     id="g4161"
     inkscape:label="connectionsback-nmbu"
     style="display:inline" />
  <g
     inkscape:groupmode="layer"
     id="layer5"
     inkscape:label="text"
     style="display:inline" />
  <g
     inkscape:label="text-uio"
     id="g3915"
     inkscape:groupmode="layer"
     style="display:inline" />
  <g
     inkscape:label="connections"
     inkscape:groupmode="layer"
     id="layer1"
     transform="translate(-147.1422,-262.47633)" />
  <g
     inkscape:groupmode="layer"
     id="layer7"
     inkscape:label="brainback"
     style="display:inline">
    <path
       style="fill:url(#radialGradient4968);fill-opacity:1;stroke:none"
       d="m 187.6125,111.09375 c -2.51789,-0.0162 -5.05275,0.2141 -7.53125,0.65625 -2.50565,0.49073 -4.99095,1.19457 -7.375,2.125 1.17992,0.82778 2.27308,1.71381 3.25,2.78125 1.34991,1.35983 2.53405,3.53294 1.5,5.40625 -2.25336,3.12809 -3.4457,6.82432 -4.9375,10.34375 -0.40444,0.65859 -0.69531,1.49146 -0.25,2.21875 0.28932,0.87035 1.27829,0.9632 2.0625,1 2.21374,0.30323 4.37624,1.60296 5.15625,3.78125 1.69871,4.3495 2.06679,9.08827 1.84375,13.71875 -0.42721,3.85277 -0.0307,7.73111 -0.0937,11.59375 -0.18099,2.16644 -0.43123,4.42812 0.40625,6.5 1.11899,1.78966 1.16873,3.98835 0.96875,6.03125 -0.85399,4.89699 -0.36699,9.91689 0.46875,14.78125 0.73658,4.67715 1.87036,9.54556 0.5,14.21875 -0.91989,3.24225 -3.7941,5.31392 -6.5,7.03125 -2.28787,1.52211 -5.09614,2.97511 -5.90625,5.8125 -0.30001,2.26083 -0.96033,4.58509 -0.53125,6.875 0.4313,2.41975 2.83586,3.77752 5.03125,4.34375 5.90187,1.30099 11.95556,1.8383 17.90625,2.875 2.06865,0.45375 4.23512,0.51126 6.28125,-0.0937 3.80726,-1.07176 7.2872,-3.46695 11.34375,-3.53125 4.5359,-0.0547 8.5342,2.38036 12.28125,4.65625 2.32836,1.59358 5.21856,2.49362 7.03125,4.75 1.44683,1.48138 0.80444,4.11898 -0.9375,5.0625 -1.55184,0.69191 -3.37926,0.6285 -5.03125,0.375 -4.46599,-0.72252 -8.11084,-3.53056 -11.90625,-5.78125 -1.84744,-1.3484 -4.26777,-1.32886 -6.4375,-1.0625 -4.27669,0.65201 -8.66659,0.30465 -12.84375,-0.78125 -5.00536,-1.42354 -10.22746,-0.61894 -15.3125,-0.1875 -2.96008,0.49574 -6.34272,0.30863 -8.6875,-1.78125 -1.31156,-1.19519 -1.96415,-2.78352 -2.34375,-4.46875 -0.69414,-1.58457 -1.11964,-3.28232 -1.875,-4.84375 -2.03391,-3.31867 -5.32208,-5.72474 -8.84375,-7.28125 -2.7399,-0.97936 -5.57329,-2.34583 -8.5625,-1.90625 -3.22968,0.85937 -6.15778,2.6148 -9.40625,3.4375 -2.02589,0.70125 -4.5846,0.17045 -6.1875,1.875 -1.54067,2.23663 -3.56148,4.08975 -5.71875,5.71875 -2.17772,1.45642 -4.11644,3.40378 -6.65625,4.21875 -0.30123,-0.009 -0.5578,-0.10241 -0.8125,-0.21875 -3.39537,6.72263 -7.50584,13.11722 -10.09375,20.21875 -0.80096,1.89705 -1.276,3.8966 -1.5,5.9375 0.54124,0.75069 1.02692,1.53831 1.65625,2.1875 1.55253,1.8196 3.94978,2.33747 6.15625,2.90625 4.491,1.07058 8.52461,3.45336 12.9375,4.75 2.64416,0.90782 5.56281,0.39056 8.15625,1.46875 2.29455,1.15746 3.98757,3.18106 5.28125,5.34375 0.75563,1.5815 1.66906,3.34303 1.21875,5.15625 -0.33687,1.68751 -1.87328,2.959 -3.5625,3.25 -2.15318,0.35297 -3.93945,-1.21082 -5.1875,-2.78125 -1.43938,-1.99804 -3.61975,-3.14668 -5.5,-4.65625 -3.3583,-2.45287 -5.99179,-5.85657 -9.53125,-8.09375 -3.3068,-1.99315 -7.34671,-0.94491 -10.90625,-2.03125 -0.16638,-0.0397 -0.31243,-0.1013 -0.46875,-0.15625 0.4669,2.59212 1.31822,5.11771 2.125,7.625 2.30328,7.33775 5.00003,14.53495 7.65625,21.75 1.06526,2.81323 2.09892,5.64115 3.125,8.46875 0.94969,-2.68597 1.99268,-5.34494 2.75,-8.09375 0.47331,-2.29902 1.48748,-4.84651 3.8125,-5.8125 1.20603,-0.15417 2.29492,0.49765 3.125,1.3125 2.39323,2.57938 2.75964,6.20727 3.59375,9.46875 0.79665,2.88151 1.19124,6.19696 3.53125,8.3125 3.14823,2.00624 6.86957,2.82453 10.4375,3.78125 0.75046,0.26633 1.55036,0.42939 2.34375,0.59375 -0.3724,-2.40975 -0.1021,-4.9485 0.1875,-7.34375 1.07553,-6.83457 2.78154,-13.59637 5.34375,-20.03125 1.34445,-3.43444 3.06585,-7.1277 6.5,-8.90625 3.90594,-1.28256 8.09707,-1.16296 12.15625,-1.28125 3.18944,-0.0959 6.7337,0.0736 9.375,-2.03125 2.05121,-3.22191 4.10875,-6.44357 6.125,-9.6875 0.44174,-0.61567 0.80907,-1.31365 1.15625,-2 -0.47936,0.16125 -0.96276,0.33583 -1.4375,0.5 -4.05641,1.23627 -8.23678,3.00926 -12.5625,2.34375 -5.20407,-1.45377 -9.98661,-4.04975 -15.03125,-5.9375 -4.31894,-1.79451 -9.16551,-2.66814 -12.8125,-5.78125 -3.51998,-3.46487 -4.84115,-8.36817 -7.34375,-12.5 -0.66336,-1.85604 -2.48447,-3.66528 -4.59375,-3.28125 -3.96069,0.83886 -8.40886,0.18599 -11.59375,-2.4375 -1.34565,-0.58105 -1.09827,-2.91159 0.34375,-3.1875 1.73803,0.42322 3.42502,1.02296 5.15625,1.46875 3.77517,0.6269 7.21391,-1.50325 10.84375,-2.09375 0.92746,-0.11329 1.91233,0.18142 2.625,0.78125 1.96564,1.77147 2.79651,4.37731 3.71875,6.78125 1.32208,3.70222 2.46419,7.76441 5.46875,10.5 3.67977,2.8216 8.36032,3.67185 12.6875,5.03125 3.27233,0.90926 6.23583,2.6093 9.28125,4.0625 2.09918,1.21039 4.6038,1.37122 6.9375,0.875 3.92839,-1.0597 7.57068,-2.99748 11.46875,-4.15625 4.92237,-1.65167 10.25466,-1.96718 15.34375,-0.96875 5.02243,0.78675 9.05099,4.12592 13.5,6.3125 2.83203,1.46118 5.93403,2.24977 9,3.0625 2.39998,0.5104 4.18843,2.42196 5.125,4.59375 1.0947,3.39436 1.92071,6.8838 2.8125,10.34375 0.29989,1.86236 1.27554,3.52723 1.59375,5.375 0.24628,1.04299 0.26885,2.48609 -0.90625,2.96875 -0.96957,0.51402 -2,0.18446 -2.84375,-0.40625 -1.61626,-1.38411 -3.11991,-2.94651 -4.5,-4.5625 -1.76902,-2.19241 -3.21762,-4.60694 -4.25,-7.25 -0.1951,-0.91452 -0.78828,-1.51597 -1.65625,-1.90625 -3.66933,-1.60941 -6.44347,-4.60471 -9.46875,-7.15625 -2.99825,-2.94705 -6.93183,-4.93805 -11.0625,-5.6875 -3.26589,-0.51125 -6.5036,-0.15695 -9.6875,0.5625 -1.54083,4.64694 -4.75807,8.47486 -7,12.78125 -1.56501,2.52844 -2.48981,5.71886 -5.21875,7.28125 -2.65627,0.94648 -5.55705,0.88945 -8.34375,0.96875 -2.72463,0.18286 -5.48571,-0.15066 -8.1875,0.3125 -2.91771,0.53331 -4.92032,2.98189 -6.65625,5.1875 -3.43215,4.84754 -4.68922,10.76605 -5.78125,16.5 -0.56341,3.54601 -1.57553,7.25275 -0.59375,10.8125 1.55119,4.77358 3.15859,9.63065 6.0625,13.78125 1.80428,2.39684 3.96576,4.70294 6.71875,6 1.90724,1.09174 4.17827,0.31017 5.875,-0.8125 3.27685,-2.40383 5.93412,-5.53824 8.75,-8.4375 1.12322,-1.03184 2.24284,-2.23175 3.53125,-3.09375 -1.48106,-0.86598 -2.99026,-1.68446 -4.53125,-2.4375 -4.45012,-2.14166 -8.91211,-4.40794 -12.46875,-7.90625 -1.69159,-1.26006 -1.49226,-4.46394 0.625,-5.15625 0.26036,-0.0147 0.52014,-0.0403 0.78125,-0.0312 1.19627,0.30778 2.29752,0.98296 3.46875,1.40625 4.17895,1.42917 8.3705,2.97015 12.03125,5.53125 2.98883,2.29113 5.58245,5.04372 8.375,7.5625 5.44472,5.06231 11.80916,9.20461 16.375,15.15625 1.55718,2.37664 3.86874,4.36348 4.625,7.1875 0.37501,0.84259 0.20589,1.952 -0.65625,2.4375 -0.91619,0.72652 -2.26932,0.26598 -2.75,-0.75 -2.65835,-3.47135 -5.76484,-6.56114 -8.90625,-9.59375 -3.57957,-3.28696 -7.2006,-6.57528 -11.0625,-9.53125 -0.30637,-0.2274 -0.62692,-0.43443 -0.9375,-0.65625 -0.30846,0.26615 -0.61953,0.52848 -0.875,0.8125 -3.48427,3.03406 -6.83405,6.21979 -10.375,9.1875 -2.87259,2.38729 -6.20718,4.7633 -10.09375,4.8125 -3.27103,0.029 -6.08276,-2.18002 -7.84375,-4.78125 -3.71143,-5.66964 -7.4395,-11.34921 -10.5,-17.40625 -0.48314,-0.046 -0.97291,-0.092 -1.4375,-0.125 -5.08789,-0.46239 -10.41244,-1.42351 -14.53125,-4.65625 -2.62387,-1.66434 -4.07315,-4.62105 -4.75,-7.5625 -0.63549,-1.58478 -0.4091,-3.41162 -1.28125,-4.90625 -0.38113,-1.10614 -2.31825,-0.62815 -2.21875,0.5 -1.03276,2.57128 -1.9281,5.49436 -4.375,7.09375 -0.28337,0.21314 -0.56739,0.26924 -0.875,0.28125 1.69381,4.72464 3.35821,9.46689 5.0625,14.1875 1.26538,3.54454 2.43397,7.15081 3.1875,10.84375 0.21025,1.00402 0.41069,1.9985 0.59375,3 2.00911,-0.44566 4.09468,-0.53211 6.125,-0.84375 4.16144,-0.77735 7.29205,-3.84424 11,-5.65625 0.4357,-0.1517 1.00966,-0.005 1.34375,0.3125 2.07782,3.18923 3.05302,6.94173 4.65625,10.375 2.45698,6.07306 7.80706,11.09834 14.28125,12.53125 4.40989,0.66276 8.87623,0.85188 13.3125,1.28125 2.56884,0.59891 5.31225,0.0765 7.59375,-1.21875 2.90121,-1.49048 5.50535,-3.97951 8.90625,-4.1875 2.93114,-0.0905 5.32649,1.89903 7.46875,3.65625 1.8372,1.46428 3.81828,3.46139 6.375,3.15625 2.43504,-0.77965 4.59282,-2.23538 6.8125,-3.46875 4.11043,-2.18138 8.146,-4.54022 12.5625,-6.0625 2.13005,-0.60545 4.58819,-1.51289 6.6875,-0.34375 1.6196,0.76309 1.41354,3.15673 0.0937,4.09375 -3.11205,1.85612 -6.05839,4.05445 -8.53125,6.71875 -1.37093,1.57177 -2.84648,3.23072 -4.65625,4.4375 -3.12589,1.83085 -6.85613,2.1533 -10.40625,2.125 -2.25231,-0.0947 -4.47542,-0.73742 -6.40625,-1.90625 -2.93512,-1.59175 -4.98496,-4.45315 -8.0625,-5.8125 -2.32722,-0.9549 -4.76353,0.2571 -6.875,1.21875 -3.01374,1.56154 -6.36463,2.79779 -9.8125,2.59375 -5.32316,-0.75561 -10.72889,-0.13672 -16.0625,-0.75 -5.14684,-1.08325 -9.47875,-4.27488 -13.625,-7.34375 -3.47838,-1.65679 -5.34064,-5.27779 -8.40625,-7.46875 -4.56256,-1.37514 -9.30414,-2.15029 -13.75,-3.90625 -0.021,-0.003 -0.0418,0.003 -0.0625,0 0.18108,1.21233 0.36053,2.42534 0.5,3.65625 0.55439,4.09169 0.90067,8.4845 3.40625,11.9375 2.85006,3.86722 6.98838,6.32604 10.8125,9.125 1.79255,0.16049 3.41709,1.03425 4.625,3.9375 4.27421,4.58167 6.83684,10.41632 9.78125,15.875 1.52356,2.91013 3.1635,6.12095 6.28125,7.59375 3.56834,1.34913 7.46392,1.2092 11.21875,1.1875 2.83023,-0.0669 5.7533,-0.11757 8.59375,0.21875 0.10394,-0.077 0.1844,-0.15884 0.28125,-0.25 2.01701,-2.94844 2.41093,-6.59279 3.40625,-9.9375 0.82054,-3.41166 2.86572,-6.83519 6.25,-8.1875 3.29104,-1.38532 6.88036,-0.65192 10.3125,-0.46875 3.37204,0.25631 6.76762,-0.5605 9.75,-2.125 1.60141,-0.66286 3.08916,-1.76641 4.53125,-2.5625 1.17632,-0.853 2.35845,-1.64326 3.375,-2.59375 0.66632,-0.56785 1.32176,-1.30217 2,-1.8125 1.97477,-1.91374 3.99406,-3.9022 6.5625,-5 2.46856,-0.32683 4.51864,2.54442 3.46875,4.78125 -1.29962,3.49963 -3.81954,6.52193 -6.90625,8.625 -3.63981,2.61582 -8.14483,3.67643 -12.4375,4.78125 -2.33957,0.59806 -4.73968,0.98142 -7.15625,0.6875 -3.23306,-0.33865 -6.6465,0.31059 -9.28125,2.28125 -3.39144,2.54033 -4.85589,6.68736 -6.46875,10.4375 -0.43024,0.96872 -0.85831,2.03663 -1.40625,3 0.17738,0.0818 0.3558,0.16131 0.53125,0.25 5.40126,2.92377 9.25708,7.8171 13.59375,12.03125 2.20434,2.10044 4.45877,4.38915 7.40625,5.40625 4.10957,1.69372 8.83324,1.13955 12.75,-0.8125 2.65522,-1.17484 4.6338,-3.37465 6.5625,-5.46875 4.60533,-5.46231 9.68554,-10.73464 12.625,-17.34375 2.25339,-5.0705 2.5508,-10.7196 2.5,-16.1875 0.10676,-6.10936 -1.49286,-12.06343 -1.96875,-18.125 -0.46289,-6.79823 0.34701,-13.57763 0.46875,-20.375 -0.14822,-7.91224 -0.35435,-15.83547 -0.40625,-23.75 -0.18022,-11.82847 0.52895,-23.64147 0.46875,-35.46875 0.0709,-8.45591 -1.15434,-16.84358 -2.15625,-25.21875 -0.73628,-5.87529 -1.30551,-11.83051 -0.78125,-17.75 0.68593,-6.67059 2.25025,-13.23977 2.34375,-19.96875 -0.006,-7.96026 0.20321,-15.9468 0.0312,-23.90625 -0.0292,-4.24666 -0.3919,-8.47016 -0.875,-12.6875 -0.9429,-7.55941 -1.29677,-15.20454 -0.8125,-22.8125 0.31036,-6.04311 1.27893,-12.06293 0.96875,-18.125 -0.11844,-4.98528 -1.98144,-10.14199 -5.90625,-13.375 -3.15477,-2.65451 -7.34939,-3.47165 -11.34375,-3.84375 -4.84405,-0.41828 -9.71914,-0.45978 -14.5625,-0.90625 -8.99752,-0.98205 -17.81668,-3.18297 -26.8125,-4.1875 z m -19.6875,5.0625 c -0.90683,0.52009 -1.80232,1.07935 -2.65625,1.6875 -3.36062,2.31491 -5.596,5.79393 -7.875,9.09375 -2.81467,4.13529 -5.8063,8.13161 -8.8125,12.125 0.12147,0.22048 0.25123,0.437 0.375,0.65625 1.66737,3.25853 3.64523,6.33361 5.25,9.625 0.48399,0.98644 0.8013,2.22164 0.28125,3.25 -0.57108,0.91037 -1.63722,1.32066 -2.4375,2 -1.03215,0.65686 -1.93512,1.46099 -2.59375,2.5 -0.46683,0.76871 -0.64565,1.67613 -0.84375,2.53125 -0.1075,0.78688 -0.18645,1.66802 -0.0937,2.5 0.0703,1.01002 0.40514,2.00966 0.21875,3.03125 -0.10407,0.96932 -0.84891,1.71646 -1.71875,2.0625 -2.35289,0.82866 -4.894,1.08816 -7.375,0.90625 -3.31408,-0.2096 -6.44679,-1.55036 -9.1875,-3.375 -0.0109,-0.009 -0.0202,-0.0223 -0.0312,-0.0312 -1.25957,1.94219 -2.50916,3.88337 -3.6875,5.875 -2.54971,3.85238 -4.27146,8.30447 -4.5625,12.9375 -0.006,0.19757 0.003,0.39635 0,0.59375 3.4841,-1.70394 7.24274,-2.74297 11.0625,-3.375 0.1062,-0.008 0.23755,-0.0575 0.34375,-0.0312 1.42323,0.34902 2.35068,1.66107 3.4375,2.5625 2.50659,2.30682 5.37005,4.27028 8.5625,5.5 2.82568,1.28999 6.05098,1.44452 8.8125,2.875 1.71211,0.70497 3.00572,2.06218 4.53125,3.03125 2.04788,1.06168 4.47997,0.92513 6.6875,0.5 1.4079,-0.53158 3.13998,-0.67548 4.375,0.34375 1.28176,1.41562 1.3476,3.87777 0.15625,5.34375 -0.99344,1.34188 -2.65981,1.89212 -4.1875,2.375 -3.0548,0.75716 -6.24499,0.91755 -9.34375,0.3125 -2.82791,-0.46695 -5.37428,-1.90725 -7.625,-3.625 -3.5642,-2.40675 -6.69441,-5.40246 -9.5625,-8.59375 -1.85256,-1.78365 -3.28641,-4.00715 -5.53125,-5.34375 -0.98068,-0.21001 -2.06408,0.18248 -3.0625,0.3125 -2.97929,0.54155 -5.60051,2.15118 -8.5,2.9375 0.49164,6.86112 1.92108,13.6482 2.1875,20.53125 0.18394,3.91987 -0.28431,7.87312 -1.4375,11.625 -0.10904,0.36565 -0.22575,0.73216 -0.34375,1.09375 0.93276,-0.97636 1.81525,-1.97744 2.625,-3.0625 1.41471,-2.4284 3.48323,-4.61797 6.1875,-5.5625 4.51199,-0.9007 9.01889,-1.81732 13.5,-2.875 3.52195,-0.20789 6.77697,1.4893 9.84375,3 3.997,2.01942 7.88702,4.45812 11.1875,7.5 -0.0509,-1.88261 0.13959,-3.74753 0.9375,-5.5 2.06269,-3.38568 4.93501,-6.17571 7.6875,-9 1.8344,-1.99434 4.26855,-3.86361 4.59375,-6.75 -1.03546,-6.03376 -2.11821,-12.07112 -2.8125,-18.15625 -0.17475,-3.02506 -1.22477,-5.93437 -2.8125,-8.5 -0.84777,-1.16625 -1.38845,-2.51906 -1.46875,-3.96875 -0.21244,-6.14895 -0.55646,-12.40242 0.71875,-18.46875 0.52237,-2.30149 1.32958,-4.87386 0.53125,-7.28125 -1.42909,-1.82762 -4.02772,-1.94012 -5.875,-3.1875 -2.05528,-1.33166 -3.59517,-3.77787 -3.1875,-6.3125 1.19685,-2.62874 2.45234,-5.24797 3.71875,-7.84375 0.97183,-2.7877 3.32839,-4.74321 4.53125,-7.40625 -1.56407,-1.00445 -3.1954,-1.90269 -4.71875,-2.96875 z m 63,4.875 c 1.37624,0.0196 2.66722,1.06667 3.1875,2.3125 0.76844,1.74796 0.1427,3.72188 -0.78125,5.28125 -2.30252,3.7143 -3.64639,7.94054 -6.15625,11.53125 -1.50809,2.46805 -4.24587,3.75705 -6.90625,4.59375 -2.48514,0.75227 -4.96728,1.70454 -7.53125,2.15625 -0.0437,0.0784 -0.10039,0.17792 -0.15625,0.25 -2.06532,1.58632 -4.68643,2.01463 -6.9375,3.25 -1.49976,0.96503 -3.59171,1.91954 -3.75,3.9375 0.27848,1.97691 0.53998,4.27791 -0.875,5.90625 -0.89007,1.21026 -2.73565,0.69746 -3.53125,-0.34375 -0.76612,-1.90501 -0.59355,-4.11618 -0.53125,-6.15625 0.0541,-1.35621 -0.1909,-3.06339 1,-4 2.63509,-1.60493 5.38404,-3.01735 8.21875,-4.25 -0.26574,-0.36351 -0.48092,-0.76419 -0.59375,-1.21875 -0.34964,-1.48302 -0.25324,-3.49757 -1.875,-4.25 -2.61455,-0.2015 -5.02629,-1.30911 -7.34375,-2.46875 -1.81192,-1.26283 -4.05587,-1.90522 -5.65625,-3.46875 -1.16792,-0.76968 -1.48115,-2.57074 -0.46875,-3.59375 0.81703,-0.88055 1.99969,-0.14218 2.96875,0 3.89448,0.94621 7.55569,2.88658 11.59375,3.1875 1.69816,0.20358 3.66558,0.0142 5.03125,1.21875 1.3065,1.4801 1.3075,3.60357 1.3125,5.46875 -0.0161,0.96546 0.95591,1.58152 1.84375,1.34375 3.29577,-0.95059 6.21876,-3.12687 8.125,-5.96875 1.61368,-2.83847 1.8495,-6.23125 3.34375,-9.125 1.07957,-2.50824 3.00766,-5.07904 5.875,-5.53125 0.19805,-0.0413 0.39714,-0.0653 0.59375,-0.0625 z m -85.3125,22 c -2.98455,3.95514 -5.95578,7.92615 -8.78125,12 -1.12662,1.7004 -2.27181,3.39631 -3.40625,5.09375 1.31967,-0.1464 2.58308,-0.65893 3.78125,-1.21875 0.99464,-0.48823 2.07337,-0.7997 3.1875,-0.8125 1.33736,0.0467 2.66096,0.31 4,0.375 1.03744,0.0861 2.0769,-0.2686 2.96875,-0.75 0.60711,-0.43336 1.18123,-0.991 1.53125,-1.65625 0.42624,-0.91671 0.77447,-1.94899 0.53125,-2.96875 -0.11789,-0.91615 -0.54937,-1.7849 -0.96875,-2.59375 -1.38815,-2.31051 -1.97781,-4.94038 -2.84375,-7.46875 z M 220.26875,151 c 0.17825,0.0221 0.33845,0.0867 0.5,0.15625 1.35402,0.53783 1.7125,2.15278 1.6875,3.46875 -0.29698,2.45016 -0.18835,4.9143 -0.28125,7.375 0.13058,1.4216 -0.20528,2.9833 -1.3125,3.96875 -1.51921,1.56999 -4.01969,1.79634 -5.3125,3.625 -0.20831,2.61488 0.29775,5.20191 0.34375,7.8125 0.17724,3.61225 -1.01327,7.1088 -2.28125,10.4375 -0.51016,1.75483 -1.17452,3.5062 -1.28125,5.34375 0.008,2.04113 1.55856,3.51233 2.625,5.09375 1.30119,1.60638 2.29837,3.54671 4.03125,4.75 0.42161,0.26847 0.8637,0.52213 1.3125,0.75 0.24246,0.0814 0.47392,0.16838 0.6875,0.3125 0.0126,0.006 0.0186,0.0257 0.0312,0.0312 1.6437,0.72245 3.41821,1.1151 5.21875,0.96875 1.1444,-0.42691 2.44122,-0.42479 3.59375,-0.0312 1.44378,0.6396 2.91437,1.6524 3.4375,3.21875 0.55514,1.24126 0.46474,2.84528 -0.5625,3.8125 -0.63199,0.74366 -1.6642,0.33826 -2.4375,0.0937 -1.29108,-0.56871 -2.72627,-0.58478 -4.09375,-0.84375 -1.67654,-0.20322 -3.21241,-0.85296 -4.78125,-1.4375 -1.07687,-0.39861 -2.18746,-0.75501 -3.28125,-1.125 -1.13521,0.005 -2.27153,0.12934 -3.3125,0.625 -2.62065,1.95993 -5.4227,3.62311 -8.40625,4.96875 -3.01154,1.08538 -5.73228,2.79515 -8.5,4.375 -2.95215,2.03857 -6.38297,3.26115 -9.6875,4.59375 -0.76049,0.60221 -2.119,-0.0846 -2,-1.0625 0.34054,-0.98195 1.43113,-1.46965 2.375,-1.6875 3.49582,-0.59415 6.58637,-2.48004 9.25,-4.75 3.55389,-3.27804 7.53908,-6.04439 11.65625,-8.5625 1.03528,-0.64895 2.11102,-1.29589 3.21875,-1.84375 -1.01364,-1.31579 -1.79672,-2.84414 -2.75,-4.1875 -1.73092,-2.60182 -3.56854,-5.26701 -4.3125,-8.34375 -0.48653,-2.96381 0.54842,-5.84466 1.4375,-8.625 1.27673,-3.1139 1.58114,-6.63106 0.78125,-9.90625 -0.93132,-2.82555 -0.18333,-5.85346 0.875,-8.53125 1.1996,-1.56945 3.15759,-2.23988 4.90625,-3 0.91157,-0.23976 1.90917,-1.05314 1.6875,-2.09375 0.40529,-2.15271 1.26142,-4.18757 1.78125,-6.3125 0.25365,-1.44126 1.04091,-3.05087 2.59375,-3.40625 0.17358,-0.0362 0.38425,-0.0534 0.5625,-0.0312 z m -8.1875,120.8125 c 1.12973,0.01 2.25145,0.14261 3.3125,0.59375 1.59486,0.52335 3.0515,2.37647 2.1875,4.0625 -0.86588,1.23474 -2.535,1.04598 -3.84375,0.875 -1.76363,-0.38081 -3.51041,0.46142 -4.71875,1.71875 -2.46143,2.79049 -4.32277,6.09092 -5.71875,9.53125 -1.40439,2.91771 -1.25208,6.22417 -1.46875,9.375 -0.25289,3.27565 0.23692,6.78492 2.3125,9.4375 1.73206,2.35167 4.26016,3.9229 6.875,5.125 5.24599,2.40334 11.02037,3.15496 16.6875,3.90625 1.34953,-0.0785 2.0007,2.04127 0.78125,2.6875 -2.87404,0.58133 -5.79086,0.80682 -8.71875,0.65625 -5.22342,-0.18662 -10.3918,-1.89679 -14.6875,-4.875 -2.54522,-1.81251 -5.03766,-3.83003 -6.84375,-6.40625 -1.26153,-1.77818 -2.07055,-3.89413 -2.03125,-6.09375 -0.084,-4.7202 -0.1332,-9.52392 0.90625,-14.15625 1.34699,-4.79122 3.10314,-9.57474 6.15625,-13.5625 1.25465,-2.09716 3.85347,-2.80165 6.15625,-2.78125 0.49767,-0.0112 1.02573,-0.0446 1.53125,-0.0625 0.37914,-0.0134 0.74842,-0.0345 1.125,-0.0312 z m 8.65625,18.46875 c 0.24591,0.005 0.47933,0.10972 0.6875,0.25 0.50938,0.73042 0.6834,1.62317 0.625,2.5 -0.16413,1.6075 -0.24076,3.5366 1.0625,4.71875 2.39524,1.40018 5.0446,2.34192 7.625,3.34375 1.77191,0.78717 3.61127,1.37136 5.5,1.8125 2.73809,0.68553 5.77641,0.72165 8.1875,2.34375 1.72968,0.86735 1.547,3.82211 -0.28125,4.46875 -1.69291,0.46275 -3.09775,-0.86711 -4.65625,-1.25 -2.81941,-0.16302 -5.53851,-1.01724 -8.15625,-2.03125 -3.52092,-1.58152 -7.35712,-2.51734 -10.59375,-4.6875 -2.48601,-1.35346 -3.78462,-4.37366 -3.3125,-7.125 0.11343,-1.84368 1.18805,-3.79484 3.0625,-4.3125 0.0841,-0.0226 0.16803,-0.0329 0.25,-0.0312 z"
       id="path4375"
       inkscape:connector-curvature="0" />
  </g>
  <g
     inkscape:label="brainback-uio"
     id="g3925"
     inkscape:groupmode="layer"
     style="display:inline" />
  <g
     style="display:inline"
     inkscape:groupmode="layer"
     id="g4157"
     inkscape:label="brainback-nmbu" />
  <g
     inkscape:groupmode="layer"
     id="layer8"
     inkscape:label="gradient"
     style="opacity:0.50617281;display:inline" />
  <g
     inkscape:groupmode="layer"
     id="layer6"
     inkscape:label="brain"
     style="display:inline" />
  <g
     inkscape:groupmode="layer"
     id="layer4"
     inkscape:label="edge"
     style="display:inline" />
  <g
     inkscape:groupmode="layer"
     id="layer2"
     inkscape:label="original"
     style="opacity:0.15226339;display:inline"
     transform="translate(-147.1422,-262.47633)" />
</svg>
