<?xml version="1.0" encoding="UTF-8" standalone="no"?>
<!-- Created with Inkscape (http://www.inkscape.org/) -->

<svg
   xmlns:dc="http://purl.org/dc/elements/1.1/"
   xmlns:cc="http://creativecommons.org/ns#"
   xmlns:rdf="http://www.w3.org/1999/02/22-rdf-syntax-ns#"
   xmlns:svg="http://www.w3.org/2000/svg"
   xmlns="http://www.w3.org/2000/svg"
   xmlns:sodipodi="http://sodipodi.sourceforge.net/DTD/sodipodi-0.dtd"
   xmlns:inkscape="http://www.inkscape.org/namespaces/inkscape"
   width="1052.3622"
   height="744.09448"
   id="svg2"
   version="1.1"
   inkscape:version="0.48.4 r9939"
   sodipodi:docname="cinpla-logo.svg">
  <defs
     id="defs4">
    <inkscape:path-effect
       effect="spiro"
       id="path-effect4532"
       is_visible="true" />
    <inkscape:path-effect
       effect="spiro"
       id="path-effect4528"
       is_visible="true" />
    <inkscape:path-effect
       effect="spiro"
       id="path-effect4524"
       is_visible="true" />
    <inkscape:path-effect
       effect="spiro"
       id="path-effect4520"
       is_visible="true" />
    <inkscape:path-effect
       effect="spiro"
       id="path-effect4516"
       is_visible="true" />
    <inkscape:path-effect
       effect="spiro"
       id="path-effect4512"
       is_visible="true" />
    <inkscape:path-effect
       effect="spiro"
       id="path-effect4508"
       is_visible="true" />
    <inkscape:path-effect
       effect="spiro"
       id="path-effect4504"
       is_visible="true" />
    <inkscape:path-effect
       effect="spiro"
       id="path-effect4500"
       is_visible="true" />
    <inkscape:path-effect
       effect="spiro"
       id="path-effect4496"
       is_visible="true" />
    <inkscape:path-effect
       effect="spiro"
       id="path-effect4481"
       is_visible="true" />
    <inkscape:path-effect
       effect="spiro"
       id="path-effect4477"
       is_visible="true" />
    <inkscape:path-effect
       is_visible="true"
       id="path-effect4473"
       effect="spiro" />
    <inkscape:path-effect
       is_visible="true"
       id="path-effect4471"
       effect="spiro" />
    <inkscape:path-effect
       is_visible="true"
       id="path-effect4469"
       effect="spiro" />
    <inkscape:path-effect
       is_visible="true"
       id="path-effect4467"
       effect="spiro" />
    <inkscape:path-effect
       is_visible="true"
       id="path-effect4465"
       effect="spiro" />
    <inkscape:path-effect
       is_visible="true"
       id="path-effect4463"
       effect="spiro" />
    <inkscape:path-effect
       is_visible="true"
       id="path-effect4461"
       effect="spiro" />
    <inkscape:path-effect
       is_visible="true"
       id="path-effect4459"
       effect="spiro" />
    <inkscape:path-effect
       is_visible="true"
       id="path-effect4457"
       effect="spiro" />
    <inkscape:path-effect
       is_visible="true"
       id="path-effect4455"
       effect="spiro" />
    <inkscape:path-effect
       is_visible="true"
       id="path-effect4453"
       effect="spiro" />
    <inkscape:path-effect
       is_visible="true"
       id="path-effect4451"
       effect="spiro" />
    <inkscape:path-effect
       is_visible="true"
       id="path-effect4449"
       effect="spiro" />
    <inkscape:path-effect
       is_visible="true"
       id="path-effect4447"
       effect="spiro" />
    <inkscape:path-effect
       is_visible="true"
       id="path-effect4445"
       effect="spiro" />
    <inkscape:path-effect
       is_visible="true"
       id="path-effect4443"
       effect="spiro" />
    <inkscape:path-effect
       is_visible="true"
       id="path-effect4441"
       effect="spiro" />
    <inkscape:path-effect
       is_visible="true"
       id="path-effect4439"
       effect="spiro" />
    <inkscape:path-effect
       is_visible="true"
       id="path-effect4437"
       effect="spiro" />
    <inkscape:path-effect
       is_visible="true"
       id="path-effect4435"
       effect="spiro" />
    <inkscape:path-effect
       is_visible="true"
       id="path-effect4433"
       effect="spiro" />
    <inkscape:path-effect
       effect="spiro"
       id="path-effect4078"
       is_visible="true" />
    <inkscape:path-effect
       effect="spiro"
       id="path-effect4074"
       is_visible="true" />
    <inkscape:path-effect
       effect="spiro"
       id="path-effect4058"
       is_visible="true" />
    <inkscape:path-effect
       effect="spiro"
       id="path-effect4038"
       is_visible="true" />
    <inkscape:path-effect
       effect="spiro"
       id="path-effect4030"
       is_visible="true" />
    <inkscape:path-effect
       effect="spiro"
       id="path-effect4024"
       is_visible="true" />
    <inkscape:path-effect
       effect="spiro"
       id="path-effect4018"
       is_visible="true" />
    <inkscape:path-effect
       effect="spiro"
       id="path-effect4012"
       is_visible="true" />
    <inkscape:path-effect
       effect="spiro"
       id="path-effect3992"
       is_visible="true" />
    <inkscape:path-effect
       effect="spiro"
       id="path-effect3988"
       is_visible="true" />
    <inkscape:path-effect
       effect="spiro"
       id="path-effect3982"
       is_visible="true" />
    <inkscape:path-effect
       effect="spiro"
       id="path-effect3978"
       is_visible="true" />
    <inkscape:path-effect
       effect="spiro"
       id="path-effect3968"
       is_visible="true" />
    <inkscape:path-effect
       effect="spiro"
       id="path-effect3964"
       is_visible="true" />
    <inkscape:path-effect
       effect="spiro"
       id="path-effect3960"
       is_visible="true" />
    <inkscape:path-effect
       effect="spiro"
       id="path-effect3952"
       is_visible="true" />
    <inkscape:path-effect
       effect="spiro"
       id="path-effect3948"
       is_visible="true" />
    <inkscape:path-effect
       effect="spiro"
       id="path-effect3940"
       is_visible="true" />
    <inkscape:path-effect
       is_visible="true"
       id="path-effect3936"
       effect="spiro" />
    <inkscape:path-effect
       effect="spiro"
       id="path-effect3930"
       is_visible="true" />
    <inkscape:path-effect
       effect="spiro"
       id="path-effect3922"
       is_visible="true" />
    <inkscape:path-effect
       effect="spiro"
       id="path-effect3918"
       is_visible="true" />
    <inkscape:path-effect
       effect="spiro"
       id="path-effect3914"
       is_visible="true" />
    <inkscape:path-effect
       is_visible="true"
       id="path-effect3848"
       effect="spiro" />
    <inkscape:path-effect
       is_visible="true"
       id="path-effect3844"
       effect="spiro" />
    <inkscape:path-effect
       is_visible="true"
       id="path-effect3838"
       effect="spiro" />
    <inkscape:path-effect
       effect="spiro"
       id="path-effect3834"
       is_visible="true" />
    <inkscape:path-effect
       is_visible="true"
       id="path-effect3824"
       effect="spiro" />
    <inkscape:path-effect
       effect="spiro"
       id="path-effect3818"
       is_visible="true" />
  </defs>
  <sodipodi:namedview
     id="base"
     pagecolor="#ffffff"
     bordercolor="#666666"
     borderopacity="1.0"
     inkscape:pageopacity="0.0"
     inkscape:pageshadow="2"
     inkscape:zoom="0.55256642"
     inkscape:cx="267.93755"
     inkscape:cy="-82.982884"
     inkscape:document-units="px"
     inkscape:current-layer="layer1"
     showgrid="true"
     showguides="true"
     inkscape:guide-bbox="true"
     inkscape:window-width="1680"
     inkscape:window-height="1026"
     inkscape:window-x="2560"
     inkscape:window-y="24"
     inkscape:window-maximized="1"
     inkscape:object-paths="true"
     inkscape:object-nodes="true"
     inkscape:snap-intersection-paths="true"
     inkscape:snap-smooth-nodes="true"
     inkscape:snap-midpoints="true"
     inkscape:snap-object-midpoints="true"
     inkscape:snap-center="true"
     inkscape:snap-page="true">
    <inkscape:grid
       type="xygrid"
       id="grid3826"
       empspacing="4"
       visible="true"
       enabled="true"
       snapvisiblegridlinesonly="true" />
  </sodipodi:namedview>
  <metadata
     id="metadata7">
    <rdf:RDF>
      <cc:Work
         rdf:about="">
        <dc:format>image/svg+xml</dc:format>
        <dc:type
           rdf:resource="http://purl.org/dc/dcmitype/StillImage" />
        <dc:title></dc:title>
      </cc:Work>
    </rdf:RDF>
  </metadata>
  <g
     inkscape:label="Layer 1"
     inkscape:groupmode="layer"
     id="layer1"
     transform="translate(0,-308.2677)">
    <g
       id="g3800"
       style="font-size:187.5859375px;font-style:normal;font-variant:normal;font-weight:normal;font-stretch:normal;text-align:start;line-height:125%;writing-mode:lr-tb;text-anchor:start;fill:#00000e;fill-opacity:1;stroke:none;font-family:Maven Pro;-inkscape-font-specification:Maven Pro"
       transform="matrix(0,1,-1,0,706.8752,1323.4564)">
      <path
         sodipodi:nodetypes="cccccczzzcsssszzzcsccccc"
         inkscape:connector-curvature="0"
         id="path3802"
         d="m -650.0511,418.8114 c -10e-6,-9.52579 1.31285,-17.61665 3.93857,-24.27259 2.6257,-6.71687 6.16736,-11.72404 10.62499,-15.02153 4.51864,-3.29732 9.1289,-5.61772 13.8308,-6.9612 4.70181,-1.40436 9.86164,-2.10658 15.4795,-2.10668 9.40366,10e-5 18.65471,1.74039 27.75319,5.2209 0,0 51.68039,21.09125 62.4,24.01436 10.71961,2.92311 7.51975,7.27295 -3.2,4.88614 -10.71975,-2.38681 -54.95608,-14.24539 -59.2,-15.98565 -4.24392,-1.74026 -17.2504,-5.22081 -26.28767,-5.2209 -11.11354,9e-5 -19.20439,2.80899 -24.2726,8.42672 -5.06826,5.61787 -7.60238,14.62468 -7.60236,27.02043 -2e-5,12.51798 2.5341,21.55531 7.60236,27.11203 5.06821,5.55676 13.15906,8.33513 24.2726,8.33512 9.40365,10e-6 22.22693,-3.4806 26.28767,-5.2209 4.06073,-1.74031 48.48025,-13.57974 59.2,-15.96275 10.71975,-2.38301 13.91961,2.09661 3.2,5.02353 -10.71961,2.92691 -62.4,24.03726 -62.4,24.03726 -8.7321,3.35847 -17.98315,5.03771 -27.75319,5.03771 -4.39659,0 -8.51835,-0.36638 -12.36528,-1.09914 -3.78596,-0.73275 -7.69399,-2.19827 -11.72412,-4.39654 -3.96913,-2.19827 -7.35813,-5.00717 -10.16701,-8.42671 -2.80893,-3.48059 -5.12932,-8.15191 -6.9612,-14.01399 -1.77084,-5.86203 -2.65626,-12.67056 -2.65625,-20.42562" />
    </g>
    <g
       transform="matrix(0,-1,1,0,-130.74757,-2.4016374)"
       style="font-size:187.5859375px;font-style:normal;font-variant:normal;font-weight:normal;font-stretch:normal;text-align:start;line-height:125%;writing-mode:lr-tb;text-anchor:start;fill:#00000e;fill-opacity:1;stroke:none;font-family:Maven Pro;-inkscape-font-specification:Maven Pro"
       id="g3812">
      <path
         d="m -650.0511,418.8114 c -10e-6,-9.52579 1.31285,-17.61665 3.93857,-24.27259 2.6257,-6.71687 6.16736,-11.72404 10.62499,-15.02153 4.51864,-3.29732 9.1289,-5.61772 13.8308,-6.9612 4.70181,-1.40436 9.86164,-2.10658 15.4795,-2.10668 9.40366,10e-5 18.65471,1.74039 27.75319,5.2209 0,0 51.68039,21.09125 62.4,24.01436 10.71961,2.92311 7.51975,7.27295 -3.2,4.88614 -10.71975,-2.38681 -54.95608,-14.24539 -59.2,-15.98565 -4.24392,-1.74026 -17.2504,-5.22081 -26.28767,-5.2209 -11.11354,9e-5 -19.20439,2.80899 -24.2726,8.42672 -5.06826,5.61787 -7.60238,14.62468 -7.60236,27.02043 -2e-5,12.51798 2.5341,21.55531 7.60236,27.11203 5.06821,5.55676 13.15906,8.33513 24.2726,8.33512 9.40365,10e-6 22.22693,-3.4806 26.28767,-5.2209 4.06073,-1.74031 48.48025,-13.57974 59.2,-15.96275 10.71975,-2.38301 13.91961,2.09661 3.2,5.02353 -10.71961,2.92691 -62.4,24.03726 -62.4,24.03726 -8.7321,3.35847 -17.98315,5.03771 -27.75319,5.03771 -4.39659,0 -8.51835,-0.36638 -12.36528,-1.09914 -3.78596,-0.73275 -7.69399,-2.19827 -11.72412,-4.39654 -3.96913,-2.19827 -7.35813,-5.00717 -10.16701,-8.42671 -2.80893,-3.48059 -5.12932,-8.15191 -6.9612,-14.01399 -1.77084,-5.86203 -2.65626,-12.67056 -2.65625,-20.42562"
         id="path3814"
         inkscape:connector-curvature="0"
         sodipodi:nodetypes="cccccczzzcsssszzzcsccccc" />
    </g>
    <text
       xml:space="preserve"
       style="font-size:180.54508972px;font-style:normal;font-variant:normal;font-weight:normal;font-stretch:normal;text-align:start;line-height:125%;writing-mode:lr-tb;text-anchor:start;fill:#000000;fill-opacity:1;stroke:none;font-family:Maven Pro;-inkscape-font-specification:Maven Pro"
       x="387.68988"
       y="710.52405"
       id="text3828"
       sodipodi:linespacing="125%"><tspan
         sodipodi:role="line"
         id="tspan3830"
         x="387.68988"
         y="710.52405">cinpla</tspan></text>
    <path
       style="fill:none;stroke:#000000;stroke-width:10;stroke-linecap:butt;stroke-linejoin:round;stroke-opacity:1;stroke-miterlimit:4;stroke-dasharray:none"
       d="m 576,1240.0945 0,-80 -64,-64 0,-96"
       id="path3916"
       inkscape:path-effect="#path-effect3918"
       inkscape:original-d="m 576,1240.0945 0,-80 -64,-64 0,-96"
       inkscape:connector-curvature="0"
       transform="translate(0,308.2677)" />
    <path
       style="fill:none;stroke:#000000;stroke-width:10;stroke-linecap:butt;stroke-linejoin:round;stroke-opacity:1;stroke-miterlimit:4;stroke-dasharray:none"
       d="m 608,1240.0945 0,-96 -64,-64 0,-96.00002"
       id="path3920"
       inkscape:path-effect="#path-effect3922"
       inkscape:original-d="m 608,1240.0945 0,-96 -64,-64 0,-96.00002"
       inkscape:connector-curvature="0"
       transform="translate(0,308.2677)" />
    <path
       sodipodi:type="arc"
       style="fill:#000000;fill-opacity:1;stroke:none"
       id="path3924"
       sodipodi:cx="544"
       sodipodi:cy="984.09448"
       sodipodi:rx="16"
       sodipodi:ry="16"
       d="m 560,984.09448 a 16,16 0 1 1 -32,0 16,16 0 1 1 32,0 z"
       transform="translate(0,308.2677)" />
    <path
       transform="translate(-32,324.2677)"
       d="m 560,984.09448 a 16,16 0 1 1 -32,0 16,16 0 1 1 32,0 z"
       sodipodi:ry="16"
       sodipodi:rx="16"
       sodipodi:cy="984.09448"
       sodipodi:cx="544"
       id="path3926"
       style="fill:#000000;fill-opacity:1;stroke:none"
       sodipodi:type="arc" />
    <path
       style="fill:none;stroke:#000000;stroke-width:10;stroke-linecap:butt;stroke-linejoin:round;stroke-miterlimit:4;stroke-opacity:1;stroke-dasharray:none"
       d="m 320,1080.0945 32,-48 0,-64.00002 0,-80"
       id="path3928"
       inkscape:path-effect="#path-effect3930"
       inkscape:original-d="m 320,1080.0945 32,-48 0,-64.00002 0,-80"
       inkscape:connector-curvature="0"
       transform="translate(0,308.2677)"
       sodipodi:nodetypes="ccc" />
    <path
       sodipodi:type="arc"
       style="fill:#000000;fill-opacity:1;stroke:none"
       id="path3932"
       sodipodi:cx="544"
       sodipodi:cy="984.09448"
       sodipodi:rx="16"
       sodipodi:ry="16"
       d="m 560,984.09448 a 16,16 0 1 1 -32,0 16,16 0 1 1 32,0 z"
       transform="translate(-224,404.2677)" />
    <path
       id="path3938"
       transform="translate(0,308.2677)"
       style="fill:none;stroke:#000000;stroke-width:10;stroke-linecap:butt;stroke-linejoin:miter;stroke-miterlimit:4;stroke-opacity:1;stroke-dasharray:none"
       inkscape:path-effect="#path-effect3940"
       inkscape:original-d="m 352,1096.0945 32,-48 0,-64 0,-112.00002"
       d="m 352,1096.0945 32,-48 0,-64 0,-112.00002"
       inkscape:connector-curvature="0"
       sodipodi:nodetypes="ccc" />
    <path
       sodipodi:type="arc"
       style="fill:#000000;fill-opacity:1;stroke:none"
       id="path3944"
       sodipodi:cx="544"
       sodipodi:cy="984.09448"
       sodipodi:rx="16"
       sodipodi:ry="16"
       d="m 560,984.09448 a 16,16 0 1 1 -32,0 16,16 0 1 1 32,0 z"
       transform="translate(-192,420.2677)" />
    <path
       style="fill:none;stroke:#000000;stroke-width:10;stroke-linecap:butt;stroke-linejoin:miter;stroke-opacity:1;stroke-miterlimit:4;stroke-dasharray:none"
       d="m 464,856.09448 0,96 -48,48.00002 0,128"
       id="path3946"
       inkscape:path-effect="#path-effect3948"
       inkscape:original-d="m 464,856.09448 0,96 -48,48.00002 0,128"
       inkscape:connector-curvature="0"
       transform="translate(0,308.2677)" />
    <path
       style="fill:none;stroke:#000000;stroke-width:10;stroke-linecap:butt;stroke-linejoin:miter;stroke-opacity:1;stroke-miterlimit:4;stroke-dasharray:none"
       d="m 448,1128.0945 0,-112 c 10.66666,-10.6667 21.33333,-21.33335 32,-32.00002 5.33333,-5.33333 10.66667,-10.66667 16,-16 l 0,-112"
       id="path3950"
       inkscape:path-effect="#path-effect3952"
       inkscape:original-d="m 448,1128.0945 0,-112 32,-32.00002 16,-16 0,-112"
       inkscape:connector-curvature="0"
       transform="translate(0,308.2677)" />
    <path
       sodipodi:type="arc"
       style="fill:#000000;fill-opacity:1;stroke:none"
       id="path3954"
       sodipodi:cx="544"
       sodipodi:cy="984.09448"
       sodipodi:rx="16"
       sodipodi:ry="16"
       d="m 560,984.09448 a 16,16 0 1 1 -32,0 16,16 0 1 1 32,0 z"
       transform="translate(-128,452.2677)" />
    <path
       transform="translate(-96,452.2677)"
       d="m 560,984.09448 a 16,16 0 1 1 -32,0 16,16 0 1 1 32,0 z"
       sodipodi:ry="16"
       sodipodi:rx="16"
       sodipodi:cy="984.09448"
       sodipodi:cx="544"
       id="path3956"
       style="fill:#000000;fill-opacity:1;stroke:none"
       sodipodi:type="arc" />
    <path
       style="fill:none;stroke:#000000;stroke-width:10;stroke-linecap:butt;stroke-linejoin:miter;stroke-opacity:1;stroke-miterlimit:4;stroke-dasharray:none"
       d="m 768,1144.0945 -128,0 -64,-64 0,-128.00002 -48,-48"
       id="path3958"
       inkscape:path-effect="#path-effect3960"
       inkscape:original-d="m 768,1144.0945 -128,0 -64,-64 0,-128.00002 -48,-48"
       inkscape:connector-curvature="0"
       transform="translate(0,308.2677)" />
    <path
       style="fill:none;stroke:#000000;stroke-width:10;stroke-linecap:butt;stroke-linejoin:miter;stroke-opacity:1;stroke-miterlimit:4;stroke-dasharray:none"
       d="m 768,1112.0945 -112,0 -48,-48 0,-128.00002 -48,-48"
       id="path3962"
       inkscape:path-effect="#path-effect3964"
       inkscape:original-d="m 768,1112.0945 -112,0 -48,-48 0,-128.00002 -48,-48"
       inkscape:connector-curvature="0"
       transform="translate(0,308.2677)" />
    <path
       style="fill:none;stroke:#000000;stroke-width:10;stroke-linecap:butt;stroke-linejoin:miter;stroke-opacity:1;stroke-miterlimit:4;stroke-dasharray:none"
       d="m 768,1080.0945 -96,0 -32,-32 0,-112.00002"
       id="path3966"
       inkscape:path-effect="#path-effect3968"
       inkscape:original-d="m 768,1080.0945 -96,0 -32,-32 0,-112.00002"
       inkscape:connector-curvature="0"
       transform="translate(0,308.2677)" />
    <path
       transform="translate(-16,228.2677)"
       d="m 560,984.09448 a 16,16 0 1 1 -32,0 16,16 0 1 1 32,0 z"
       sodipodi:ry="16"
       sodipodi:rx="16"
       sodipodi:cy="984.09448"
       sodipodi:cx="544"
       id="path3970"
       style="fill:#000000;fill-opacity:1;stroke:none"
       sodipodi:type="arc" />
    <path
       sodipodi:type="arc"
       style="fill:#000000;fill-opacity:1;stroke:none"
       id="path3972"
       sodipodi:cx="544"
       sodipodi:cy="984.09448"
       sodipodi:rx="16"
       sodipodi:ry="16"
       d="m 560,984.09448 a 16,16 0 1 1 -32,0 16,16 0 1 1 32,0 z"
       transform="translate(16,212.2677)" />
    <path
       transform="translate(96,260.2677)"
       d="m 560,984.09448 a 16,16 0 1 1 -32,0 16,16 0 1 1 32,0 z"
       sodipodi:ry="16"
       sodipodi:rx="16"
       sodipodi:cy="984.09448"
       sodipodi:cx="544"
       id="path3974"
       style="fill:#000000;fill-opacity:1;stroke:none"
       sodipodi:type="arc" />
    <path
       style="fill:none;stroke:#000000;stroke-width:10;stroke-linecap:butt;stroke-linejoin:miter;stroke-opacity:1;stroke-miterlimit:4;stroke-dasharray:none"
       d="m 640,1240.0945 0,-64 80,0"
       id="path3976"
       inkscape:path-effect="#path-effect3978"
       inkscape:original-d="m 640,1240.0945 0,-64 80,0"
       inkscape:connector-curvature="0"
       transform="translate(0,308.2677)" />
    <path
       style="fill:none;stroke:#000000;stroke-width:10;stroke-linecap:butt;stroke-linejoin:miter;stroke-miterlimit:4;stroke-opacity:1;stroke-dasharray:none"
       d="m 544,1208.0945 0,-32 -64,-64 0,-48"
       id="path3980"
       inkscape:path-effect="#path-effect3982"
       inkscape:original-d="m 544,1208.0945 0,-32 -64,-64 0,-48"
       inkscape:connector-curvature="0"
       transform="translate(0,308.2677)"
       sodipodi:nodetypes="cccc" />
    <path
       sodipodi:type="arc"
       style="fill:#000000;fill-opacity:1;stroke:none"
       id="path3984"
       sodipodi:cx="544"
       sodipodi:cy="984.09448"
       sodipodi:rx="16"
       sodipodi:ry="16"
       d="m 560,984.09448 a 16,16 0 1 1 -32,0 16,16 0 1 1 32,0 z"
       transform="translate(-64,388.2677)" />
    <path
       style="fill:none;stroke:#000000;stroke-width:10;stroke-linecap:butt;stroke-linejoin:miter;stroke-opacity:1;stroke-miterlimit:4;stroke-dasharray:none"
       d="m 672,920.09448 0,112.00002 16,16 80,0"
       id="path3986"
       inkscape:path-effect="#path-effect3988"
       inkscape:original-d="m 672,920.09448 0,112.00002 16,16 80,0"
       inkscape:connector-curvature="0"
       transform="translate(0,308.2677)" />
    <path
       style="fill:none;stroke:#000000;stroke-width:10;stroke-linecap:butt;stroke-linejoin:miter;stroke-opacity:1;stroke-miterlimit:4;stroke-dasharray:none"
       d="m 704,952.09448 0,64.00002 48,0"
       id="path3990"
       inkscape:path-effect="#path-effect3992"
       inkscape:original-d="m 704,952.09448 0,64.00002 48,0"
       inkscape:connector-curvature="0"
       transform="translate(0,308.2677)" />
    <path
       sodipodi:type="arc"
       style="fill:#000000;fill-opacity:1;stroke:none"
       id="path3994"
       sodipodi:cx="544"
       sodipodi:cy="984.09448"
       sodipodi:rx="16"
       sodipodi:ry="16"
       d="m 560,984.09448 a 16,16 0 1 1 -32,0 16,16 0 1 1 32,0 z"
       transform="translate(128,244.2677)" />
    <path
       transform="translate(160,276.2677)"
       d="m 560,984.09448 a 16,16 0 1 1 -32,0 16,16 0 1 1 32,0 z"
       sodipodi:ry="16"
       sodipodi:rx="16"
       sodipodi:cy="984.09448"
       sodipodi:cx="544"
       id="path3996"
       style="fill:#000000;fill-opacity:1;stroke:none"
       sodipodi:type="arc" />
    <path
       sodipodi:type="arc"
       style="fill:#000000;fill-opacity:1;stroke:none"
       id="path3998"
       sodipodi:cx="544"
       sodipodi:cy="984.09448"
       sodipodi:rx="16"
       sodipodi:ry="16"
       d="m 560,984.09448 a 16,16 0 1 1 -32,0 16,16 0 1 1 32,0 z"
       transform="translate(64,564.2677)" />
    <path
       transform="translate(32,564.2677)"
       d="m 560,984.09448 a 16,16 0 1 1 -32,0 16,16 0 1 1 32,0 z"
       sodipodi:ry="16"
       sodipodi:rx="16"
       sodipodi:cy="984.09448"
       sodipodi:cx="544"
       id="path4000"
       style="fill:#000000;fill-opacity:1;stroke:none"
       sodipodi:type="arc" />
    <path
       sodipodi:type="arc"
       style="fill:#000000;fill-opacity:1;stroke:none"
       id="path4002"
       sodipodi:cx="544"
       sodipodi:cy="984.09448"
       sodipodi:rx="16"
       sodipodi:ry="16"
       d="m 560,984.09448 a 16,16 0 1 1 -32,0 16,16 0 1 1 32,0 z"
       transform="translate(176,500.2677)" />
    <path
       transform="translate(224,436.2677)"
       d="m 560,984.09448 a 16,16 0 1 1 -32,0 16,16 0 1 1 32,0 z"
       sodipodi:ry="16"
       sodipodi:rx="16"
       sodipodi:cy="984.09448"
       sodipodi:cx="544"
       id="path4004"
       style="fill:#000000;fill-opacity:1;stroke:none"
       sodipodi:type="arc" />
    <path
       sodipodi:type="arc"
       style="fill:#000000;fill-opacity:1;stroke:none"
       id="path4008"
       sodipodi:cx="544"
       sodipodi:cy="984.09448"
       sodipodi:rx="16"
       sodipodi:ry="16"
       d="m 560,984.09448 a 16,16 0 1 1 -32,0 16,16 0 1 1 32,0 z"
       transform="translate(-80,180.2677)" />
    <path
       style="fill:none;stroke:#000000;stroke-width:10;stroke-linecap:butt;stroke-linejoin:miter;stroke-opacity:1;stroke-miterlimit:4;stroke-dasharray:none"
       d="m 416,872.09448 0,80"
       id="path4010"
       inkscape:path-effect="#path-effect4012"
       inkscape:original-d="m 416,872.09448 0,80"
       inkscape:connector-curvature="0"
       transform="translate(0,308.2677)" />
    <path
       transform="translate(-128,196.2677)"
       d="m 560,984.09448 a 16,16 0 1 1 -32,0 16,16 0 1 1 32,0 z"
       sodipodi:ry="16"
       sodipodi:rx="16"
       sodipodi:cy="984.09448"
       sodipodi:cx="544"
       id="path4014"
       style="fill:#000000;fill-opacity:1;stroke:none"
       sodipodi:type="arc" />
    <path
       style="fill:none;stroke:#000000;stroke-width:10;stroke-linecap:butt;stroke-linejoin:miter;stroke-miterlimit:4;stroke-opacity:1;stroke-dasharray:none"
       d="m 448,1224.0945 0,-64"
       id="path4016"
       inkscape:path-effect="#path-effect4018"
       inkscape:original-d="m 448,1224.0945 0,-64"
       inkscape:connector-curvature="0"
       transform="translate(0,308.2677)"
       sodipodi:nodetypes="cc" />
    <path
       sodipodi:type="arc"
       style="fill:#000000;fill-opacity:1;stroke:none"
       id="path4020"
       sodipodi:cx="544"
       sodipodi:cy="984.09448"
       sodipodi:rx="16"
       sodipodi:ry="16"
       d="m 560,984.09448 a 16,16 0 1 1 -32,0 16,16 0 1 1 32,0 z"
       transform="translate(-96,548.2677)" />
    <path
       style="fill:none;stroke:#000000;stroke-width:10;stroke-linecap:butt;stroke-linejoin:miter;stroke-miterlimit:4;stroke-opacity:1;stroke-dasharray:none"
       d="m 480,1160.0945 32,32 0,32"
       id="path4022"
       inkscape:path-effect="#path-effect4024"
       inkscape:original-d="m 480,1160.0945 32,32 0,32"
       inkscape:connector-curvature="0"
       transform="translate(0,308.2677)"
       sodipodi:nodetypes="ccc" />
    <path
       transform="translate(-32,548.2677)"
       d="m 560,984.09448 a 16,16 0 1 1 -32,0 16,16 0 1 1 32,0 z"
       sodipodi:ry="16"
       sodipodi:rx="16"
       sodipodi:cy="984.09448"
       sodipodi:cx="544"
       id="path4026"
       style="fill:#000000;fill-opacity:1;stroke:none"
       sodipodi:type="arc" />
    <path
       style="fill:none;stroke:#000000;stroke-width:10;stroke-linecap:butt;stroke-linejoin:miter;stroke-opacity:1;stroke-miterlimit:4;stroke-dasharray:none"
       d="m 320,904.09448 0,112.00002 -32,48 0,64"
       id="path4028"
       inkscape:path-effect="#path-effect4030"
       inkscape:original-d="m 320,904.09448 0,112.00002 c 0,0 -32,48 -32,48 l 0,64"
       inkscape:connector-curvature="0"
       transform="translate(0,308.2677)" />
    <path
       transform="translate(-256,452.2677)"
       d="m 560,984.09448 a 16,16 0 1 1 -32,0 16,16 0 1 1 32,0 z"
       sodipodi:ry="16"
       sodipodi:rx="16"
       sodipodi:cy="984.09448"
       sodipodi:cx="544"
       id="path4032"
       style="fill:#000000;fill-opacity:1;stroke:none"
       sodipodi:type="arc" />
    <path
       sodipodi:type="arc"
       style="fill:#000000;fill-opacity:1;stroke:none"
       id="path4034"
       sodipodi:cx="544"
       sodipodi:cy="984.09448"
       sodipodi:rx="16"
       sodipodi:ry="16"
       d="m 560,984.09448 a 16,16 0 1 1 -32,0 16,16 0 1 1 32,0 z"
       transform="translate(-224,228.2677)" />
    <path
       style="fill:none;stroke:#000000;stroke-width:10;stroke-linecap:butt;stroke-linejoin:miter;stroke-opacity:1;stroke-miterlimit:4;stroke-dasharray:none"
       d="m 256,1112.0945 0,-112 32,0"
       id="path4036"
       inkscape:path-effect="#path-effect4038"
       inkscape:original-d="m 256,1112.0945 0,-112 32,0"
       inkscape:connector-curvature="0"
       transform="translate(0,308.2677)" />
    <path
       transform="translate(-256,324.2677)"
       d="m 560,984.09448 a 16,16 0 1 1 -32,0 16,16 0 1 1 32,0 z"
       sodipodi:ry="16"
       sodipodi:rx="16"
       sodipodi:cy="984.09448"
       sodipodi:cx="544"
       id="path4040"
       style="fill:#000000;fill-opacity:1;stroke:none"
       sodipodi:type="arc" />
    <path
       transform="translate(-256,276.2677)"
       d="m 560,984.09448 a 16,16 0 1 1 -32,0 16,16 0 1 1 32,0 z"
       sodipodi:ry="16"
       sodipodi:rx="16"
       sodipodi:cy="984.09448"
       sodipodi:cx="544"
       id="path4042"
       style="fill:#000000;fill-opacity:1;stroke:none"
       sodipodi:type="arc" />
    <path
       sodipodi:type="arc"
       style="fill:#000000;fill-opacity:1;stroke:none"
       id="path4044"
       sodipodi:cx="544"
       sodipodi:cy="984.09448"
       sodipodi:rx="16"
       sodipodi:ry="16"
       d="m 560,984.09448 a 16,16 0 1 1 -32,0 16,16 0 1 1 32,0 z"
       transform="translate(-288,436.2677)" />
    <path
       transform="translate(-48,180.2677)"
       d="m 560,984.09448 a 16,16 0 1 1 -32,0 16,16 0 1 1 32,0 z"
       sodipodi:ry="16"
       sodipodi:rx="16"
       sodipodi:cy="984.09448"
       sodipodi:cx="544"
       id="path4046"
       style="fill:#000000;fill-opacity:1;stroke:none"
       sodipodi:type="arc" />
    <path
       sodipodi:type="arc"
       style="fill:#000000;fill-opacity:1;stroke:none"
       id="path4048"
       sodipodi:cx="544"
       sodipodi:cy="984.09448"
       sodipodi:rx="16"
       sodipodi:ry="16"
       d="m 560,984.09448 a 16,16 0 1 1 -32,0 16,16 0 1 1 32,0 z"
       transform="translate(208,340.2677)" />
    <path
       transform="translate(224,372.2677)"
       d="m 560,984.09448 a 16,16 0 1 1 -32,0 16,16 0 1 1 32,0 z"
       sodipodi:ry="16"
       sodipodi:rx="16"
       sodipodi:cy="984.09448"
       sodipodi:cx="544"
       id="path4050"
       style="fill:#000000;fill-opacity:1;stroke:none"
       sodipodi:type="arc" />
    <path
       transform="translate(96,564.2677)"
       d="m 560,984.09448 a 16,16 0 1 1 -32,0 16,16 0 1 1 32,0 z"
       sodipodi:ry="16"
       sodipodi:rx="16"
       sodipodi:cy="984.09448"
       sodipodi:cx="544"
       id="path4054"
       style="fill:#000000;fill-opacity:1;stroke:none"
       sodipodi:type="arc" />
    <path
       style="fill:none;stroke:#000000;stroke-width:10;stroke-linecap:butt;stroke-linejoin:miter;stroke-opacity:1;stroke-miterlimit:4;stroke-dasharray:none"
       d="m 416,1208.0945 0,-32 -32,-32 -64,0"
       id="path4056"
       inkscape:path-effect="#path-effect4058"
       inkscape:original-d="m 416,1208.0945 0,-32 -32,-32 -64,0"
       inkscape:connector-curvature="0"
       transform="translate(0,308.2677)" />
    <path
       transform="translate(-128,532.2677)"
       d="m 560,984.09448 a 16,16 0 1 1 -32,0 16,16 0 1 1 32,0 z"
       sodipodi:ry="16"
       sodipodi:rx="16"
       sodipodi:cy="984.09448"
       sodipodi:cx="544"
       id="path4060"
       style="fill:#000000;fill-opacity:1;stroke:none"
       sodipodi:type="arc" />
    <path
       sodipodi:type="arc"
       style="fill:#000000;fill-opacity:1;stroke:none"
       id="path4062"
       sodipodi:cx="544"
       sodipodi:cy="984.09448"
       sodipodi:rx="16"
       sodipodi:ry="16"
       d="m 560,984.09448 a 16,16 0 1 1 -32,0 16,16 0 1 1 32,0 z"
       transform="translate(-224,468.2677)" />
    <path
       transform="translate(80,212.2677)"
       d="m 560,984.09448 a 16,16 0 1 1 -32,0 16,16 0 1 1 32,0 z"
       sodipodi:ry="16"
       sodipodi:rx="16"
       sodipodi:cy="984.09448"
       sodipodi:cx="544"
       id="path4064"
       style="fill:#000000;fill-opacity:1;stroke:none"
       sodipodi:type="arc" />
    <path
       sodipodi:type="arc"
       style="fill:#000000;fill-opacity:1;stroke:none"
       id="path4066"
       sodipodi:cx="544"
       sodipodi:cy="984.09448"
       sodipodi:rx="16"
       sodipodi:ry="16"
       d="m 560,984.09448 a 16,16 0 1 1 -32,0 16,16 0 1 1 32,0 z"
       transform="translate(0,180.2677)" />
    <path
       sodipodi:type="arc"
       style="fill:#000000;fill-opacity:1;stroke:none"
       id="path4068"
       sodipodi:cx="544"
       sodipodi:cy="984.09448"
       sodipodi:rx="16"
       sodipodi:ry="16"
       d="m 560,984.09448 a 16,16 0 1 1 -32,0 16,16 0 1 1 32,0 z"
       transform="translate(-320,372.2677)" />
    <path
       style="fill:none;stroke:#000000;stroke-width:10;stroke-linecap:butt;stroke-linejoin:miter;stroke-miterlimit:4;stroke-opacity:1;stroke-dasharray:none"
       d="m 224,1048.0945 0,-80.00002 64,-16"
       id="path4072"
       inkscape:path-effect="#path-effect4074"
       inkscape:original-d="m 224,1048.0945 0,-80.00002 64,-16"
       inkscape:connector-curvature="0"
       transform="translate(0,308.2677)"
       sodipodi:nodetypes="ccc" />
    <path
       style="fill:none;stroke:#000000;stroke-width:10;stroke-linecap:butt;stroke-linejoin:miter;stroke-opacity:1;stroke-miterlimit:4;stroke-dasharray:none"
       d="m 624,888.09448 -32,-32 -64,0"
       id="path4076"
       inkscape:path-effect="#path-effect4078"
       inkscape:original-d="m 624,888.09448 -32,-32 -64,0"
       inkscape:connector-curvature="0"
       transform="translate(0,308.2677)" />
  </g>
</svg>
